<mxfile host="app.diagrams.net" modified="2023-09-20T23:24:17.786Z" agent="Mozilla/5.0 (Macintosh; Intel Mac OS X 10_15_7) AppleWebKit/537.36 (KHTML, like Gecko) Chrome/117.0.0.0 Safari/537.36 Edg/117.0.2045.35" version="21.7.2" etag="6m_fpFp6DFOCOrIwgk3f" type="github">
  <diagram name="Page-1" id="oeQLcbq_SLPsjFGIMAjT">
    <mxGraphModel>
      <root>
        <mxCell id="0" />
        <mxCell id="1" parent="0" />
      </root>
    </mxGraphModel>
  </diagram>
</mxfile>
